/* XPM */
static char *Contours_2[] = {
/* columns rows colors chars-per-pixel */
"32 32 134 2 ",
"   c None",
".  c #020202",
"X  c #010608",
"o  c #0C0C0C",
"O  c #1E0303",
"+  c #131313",
"@  c #1A1B1B",
"#  c #2A171E",
"$  c #111B2B",
"%  c #232323",
"&  c #2B2B2B",
"*  c #333232",
"=  c #3B3B3B",
"-  c #5A0000",
";  c #690000",
":  c #502837",
">  c #512A39",
",  c #46383D",
"<  c #002A62",
"1  c #4A3E43",
"2  c #5D3947",
"3  c #5A3442",
"4  c #49336E",
"5  c #2D476D",
"6  c #434343",
"7  c #4C4B4C",
"8  c #5D5D5D",
"9  c #674552",
"0  c #694955",
"q  c #6F4F5B",
"w  c #73545F",
"e  c #646464",
"r  c #6C6C6C",
"t  c #7F636E",
"y  c #737373",
"u  c #7B7B7B",
"i  c #C32727",
"p  c #826670",
"a  c #D3992B",
"s  c #474C87",
"d  c #666397",
"f  c #6B5DB5",
"g  c #4A70B1",
"h  c #6561B4",
"j  c #477FDC",
"k  c #457FE0",
"l  c #9033A1",
"z  c #AD2AAE",
"x  c #AA3FBD",
"c  c #B032BA",
"v  c #B830BD",
"b  c #D41DBD",
"n  c #C12ABC",
"m  c #947D85",
"M  c #8C4BA7",
"N  c #854DB6",
"B  c #9D40BA",
"V  c #A14EBD",
"C  c #AC46BE",
"Z  c #DC1BC1",
"A  c #FB08C4",
"S  c #F00EC3",
"D  c #E617C3",
"F  c #EB12C2",
"G  c #E319C2",
"H  c #987AC3",
"J  c #6F83A5",
"K  c #6485BD",
"L  c #708AB6",
"P  c #738FBD",
"I  c #5D86C9",
"U  c #4B82DC",
"Y  c #5684D0",
"T  c #5185DE",
"R  c #6487C2",
"E  c #6788C0",
"W  c #6A8BC3",
"Q  c #7390C2",
"!  c #4480E5",
"~  c #4883E6",
"^  c #4583EA",
"/  c #4285F5",
"(  c #4186F9",
")  c #4188FF",
"_  c #858585",
"`  c #8C8C8C",
"'  c #968089",
"]  c gray59",
"[  c #9B9B9B",
"{  c #8587B8",
"}  c #8298BC",
"|  c #8A9CBC",
" . c #8294B1",
".. c #999EBE",
"X. c #A69CA0",
"o. c #9FA6A9",
"O. c #91A0BB",
"+. c #A4A4A4",
"@. c #ABACAC",
"#. c #A0ABBD",
"$. c #BAAEB3",
"%. c #ADB4BE",
"&. c #B4B4B4",
"*. c #BFB5B9",
"=. c gray74",
"-. c #F2D684",
";. c #C5C2BF",
":. c #9A80C4",
">. c #9A89C6",
",. c #839AC1",
"<. c #9D94C8",
"1. c #8CA1C3",
"2. c #9CA9C0",
"3. c #AAB4C4",
"4. c #A4B0C4",
"5. c #B4BAC4",
"6. c #B3B4D3",
"7. c #C2C2C2",
"8. c #C2C6CC",
"9. c #CBCBCB",
"0. c #CBC9C6",
"q. c #D1D0CE",
"w. c #C8CBD2",
"e. c #CED1D4",
"r. c #C7D0DB",
"t. c #D4D3D3",
"y. c #DBDBDB",
"u. c #D6D4D7",
"i. c #E0DDDF",
"p. c #DEE2E4",
"a. c #E6E6E6",
"s. c #E8E7E8",
"d. c #ECECEC",
"f. c #F2F2F2",
/* pixels */
"i i i i i i i i i i i i i i       % % * 6 6 * & % +     g f     ",
"i i i i i i i i i i i i i i * 8 ` &.y.a.a.s.s.s.a.e.d z c Z v h ",
"i i < < < < < < < < < < i i a.a.a.a.a.a.a.a.s.s.p.H C A A Z x   ",
"i i f.f.f.f.f.f.f.f.f.f.i i a.a.a.a.a.a.a.a.a.p.>.F F A v N     ",
"i i f.a ;.;.a d.f.f.f.d.i i a.a.a.a.s.a.a.a.a.>.S A G V s       ",
"i i f.;.-.-.t.d.d.d.f.a.i i a.a.s.a.a.a.a.s.<.F A A C { X       ",
"i i f.f.q.0.f.a.f.f.d.a.i i a.a.a.a.a.a.a.6.Z A D H r.] .       ",
"i i f.f.f.f.f.f.f.f.f.f.i i a.a.a.s.a.s.o.l b M ..@.y + + r .   ",
"i i i i i i i i i i i i i i ` u r 8 7 = 5 4 $ . . . . @ ` u .   ",
"i i i i i i i i i i i i i i = 6 6 7 7 @ . . 7 &.0.y.a.a.y o     ",
"    * 0.a.a.a.a.a.a.a.a.a.a.a.a.s.s.a.9.e.t.a.s.s.9._ + .       ",
"  o y.a.a.a.a.a.a.s.a.a.a.a.a.a.a.s.a.a.s.t.[ 8 7 e o.e . +     ",
". ` a.a.a.a.a.a.s.a.a.a.a.a.a.a.p.0.[ e 7 8 [ y.d.d.d.d.6 .     ",
". y a.a.a.a.a.a.a.t.&.] y r r r r ` @.t.d.d.d.d.d.d.d.d.7.+ o   ",
"  X + 6 r r y y y _ +.;.a.d.d.d.d.d.d.d.d.s.3.1.,.| 3.d.d.y .   ",
"  o * d.d.d.d.d.d.d.d.d.d.d.d.d.d.d.d.d.w.K k I I ^ k %.d.&.. + ",
"  X 8 d.d.d.d.d.d.d.d.d.d.d.d.d.d.d.d.u.Y R 8.d.d.8.J d.d.a.+ o ",
"  . _ f.d.d.d.d.d.d.d.d.d.d.d.d.d.d.f.P / %.d.d.d.d.d.d.d.d.= o ",
"  . p f.d.d.d.d.d.d.d.d.d.d.d.d.d.d.d.P )  .y.d.d.d.d.d.d.d.= o ",
"  . e d.d.d.d.d.d.d.d.d.d.d.d.d.d.d.d.3.U ) U W 3.d.d.d.d.d.& o ",
"  o & f.d.d.d.d.d.d.d.d.d.d.d.d.d.d.d.f.q.O.P ^ ^ 3.d.d.d.u.o o ",
"  + . @.d.d.d.d.d.d.d.d.d.d.a.s.d.d.d.d.d.d.d.} ) #.d.d.d.u .   ",
"    . 6 d.d.d.d.d.d.d.d.s.m ' d.d.5.a.f.d.f.d.P T u.d.d.y.% o   ",
"    + + 6 6 +.d.d.d.d.u.q p d.d.d.R K O.8.o.P ^ 2.d.d.d.7 .     ",
"      % ; - & *.d.d.$.3 w s.d.d.i.L U ( k k W 3.d.d.d.r . +     ",
"      o ; O 7 p s.m : 9 i.d.d.d.d.d.y.5.3.e.d.d.d.a.8 . +       ",
"    > 1 * , > > 0 : 2 u.d.d.d.d.d.d.d.d.d.d.d.a.` & . +         ",
"    > : : : : : : : X.d.d.d.d.d.d.d.d.d.d.y.u % . o             ",
"    : : : : : : : # X = r ` @.=.7.=.@._ e @ . o                 ",
"      : : : : : :     o o X . . . . . o o o                     ",
"      : : : :                                                   ",
"                                                                "
};
