/* XPM */
static char *Contours_2[] = {
/* columns rows colors chars-per-pixel */
"32 32 131 2 ",
"   c None",
".  c #020202",
"X  c #010608",
"o  c #0B0B0B",
"O  c #1E0303",
"+  c #131313",
"@  c #1A1B1B",
"#  c #2A171E",
"$  c #111B2B",
"%  c #242424",
"&  c #2B2B2B",
"*  c #333232",
"=  c gray23",
"-  c #5A0000",
";  c #690000",
":  c #502837",
">  c #512A39",
",  c #46383D",
"<  c #4A3E43",
"1  c #5D3947",
"2  c #5A3442",
"3  c #49336E",
"4  c #2D476D",
"5  c #434343",
"6  c #4C4B4C",
"7  c #5D5D5D",
"8  c #674552",
"9  c #694955",
"0  c #6F4F5B",
"q  c #73545F",
"w  c #646464",
"e  c #6C6C6C",
"r  c #7F636E",
"t  c #737373",
"y  c #7B7B7B",
"u  c #C32727",
"i  c #826670",
"p  c #474C87",
"a  c #666397",
"s  c #6B5DB5",
"d  c #4A70B1",
"f  c #6561B4",
"g  c #477FDC",
"h  c #457FE0",
"j  c #9033A1",
"k  c #AD2AAE",
"l  c #AA3FBD",
"z  c #B032BA",
"x  c #B830BD",
"c  c #D41DBD",
"v  c #C12ABC",
"b  c #947D85",
"n  c #8C4BA7",
"m  c #854DB6",
"M  c #9D40BA",
"N  c #AC46BE",
"B  c #A14EBD",
"V  c #DC1BC1",
"C  c #F00EC3",
"Z  c #FB08C4",
"A  c #E617C3",
"S  c #EB12C2",
"D  c #E319C2",
"F  c #917AC1",
"G  c #9E79C4",
"H  c #6F83A5",
"J  c #6485BD",
"K  c #708AB6",
"L  c #738FBD",
"P  c #5D86C9",
"I  c #4B82DC",
"U  c #5684D0",
"Y  c #5185DE",
"T  c #6487C2",
"R  c #6788C0",
"E  c #6A8BC3",
"W  c #7390C2",
"Q  c #4480E5",
"!  c #4883E6",
"~  c #4583EA",
"^  c #4285F5",
"/  c #4186F9",
"(  c #4188FF",
")  c #858585",
"_  c #8C8C8C",
"`  c #968089",
"'  c gray59",
"]  c #9B9B9B",
"[  c #8587B8",
"{  c #8298BC",
"}  c #8A9CBC",
"|  c #8294B1",
" . c #999EBE",
".. c #A69CA0",
"X. c #9FA6A9",
"o. c #91A0BB",
"O. c #A4A4A4",
"+. c #ACACAC",
"@. c #A0ABBD",
"#. c #BAAEB3",
"$. c #ADB4BE",
"%. c gray70",
"&. c #BFB5B9",
"*. c gray74",
"=. c #9A80C4",
"-. c #9A89C6",
";. c #839AC1",
":. c #9D94C8",
">. c #8CA1C3",
",. c #9CA9C0",
"<. c #A4B0C4",
"1. c #AAB4C4",
"2. c #B4BAC4",
"3. c #B3B4D3",
"4. c #C1C1C1",
"5. c #C2C6CC",
"6. c #CBCBCB",
"7. c #C4C9D1",
"8. c #CBCDD2",
"9. c #CED1D4",
"0. c #C7D0DB",
"q. c #D4D3D3",
"w. c #D8D3D5",
"e. c #DBDBDB",
"r. c #D3D5D9",
"t. c #E0DDDF",
"y. c #DEE2E4",
"u. c #E6E6E6",
"i. c #E8E7E8",
"p. c #ECECEC",
"a. c #FFFFFF",
/* pixels */
"          u u u u                 @ & * 5 5 = & % +     d s     ",
"          u a.a.u         % * 7 _ &.e.u.u.i.u.u.u.9.a k z V x f ",
"          u a.a.u   . = %.u.u.u.u.u.u.u.u.u.u.u.y.F N Z Z V M   ",
"          u a.a.u X %.u.u.u.u.u.u.u.u.u.u.u.u.u.=.S S Z v m     ",
"          u a.a.u e.i.u.u.u.u.u.u.u.u.u.u.i.u.-.S Z D M p       ",
"u u u     u a.a.u u.u.u u u u.u.u.u.u.u.u.u.:.A Z Z N [ X       ",
"u a.a.u   u a.a.u u.u a.a.u u.i.u.u.u.u.u.3.V Z A G 0.' .       ",
"u a.a.a.u u a.a.u u a.a.a.u u.i.u.u.u.u.X.j c n o.+.t + + e .   ",
"u a.a.a.a.a.a.a.a.a.a.a.a.u _ y e 7 6 = 4 3 $ . . . X @ _ y .   ",
"  u a.a.a.a.a.a.a.a.a.a.u * = 5 5 6 6 @ . . 6 %.6.t.u.u.y .     ",
"    u a.a.a.a.a.a.a.a.u u.u.u.u.u.u.u.6.9.w.i.u.u.6.) + o       ",
"  o e.u a.a.a.a.a.a.u u.u.u.u.u.u.u.u.u.u.q.] 7 6 w ..w . +     ",
". _ u.u.u a.a.a.a.u i.u.i.u.u.u.u.6.] w 6 7 ] e.p.p.p.p.5 X     ",
". t u.u.u.u u u u 6.%.' y e e e e _ +.q.p.p.p.p.p.p.p.p.4.o o   ",
"  X + 6 e e t t t ) O.4.e.p.p.p.p.p.p.p.p.i.1.>.;.;.2.i.i.t .   ",
"  o * i.i.p.p.p.p.p.p.p.p.p.p.p.p.p.p.p.7.T Q P T ! Q $.p.%.. + ",
"  . 7 p.p.p.p.p.p.p.p.p.p.p.p.p.p.p.p.r.U P 5.p.p.5.H i.p.i.+ o ",
"  . ) p.p.p.p.p.p.p.p.p.p.p.p.p.p.p.p.L ^ $.p.p.p.p.p.p.p.p.= o ",
"  . y p.p.p.p.p.p.p.p.p.p.p.p.p.p.p.p.W / | e.p.p.p.p.p.p.p.= o ",
"  . e p.p.p.p.p.p.p.p.p.p.p.p.p.p.p.p.1.I ( I E 1.p.p.p.p.p.& o ",
"  X * p.p.p.p.p.p.p.p.p.p.p.p.p.p.p.p.p.9.o.L ~ ~ 1.p.p.p.q.o + ",
"  + . +.p.p.p.p.p.p.p.p.p.p.u.p.p.p.p.p.p.p.p.} ( @.p.p.p.y .   ",
"    . 5 p.p.p.p.p.p.p.p.u.b ` p.p.2.u.p.p.p.p.L Y r.p.p.e.% o   ",
"    + + 5 5 O.p.p.p.p.w.0 i p.p.p.E J @.5.@.L ! o.p.p.p.6 .     ",
"      % ; - & &.p.p.#.2 q i.p.p.u.K I / Q Q E 1.p.p.p.e . +     ",
"      o ; O 6 i i.b : 8 t.p.p.p.i.p.e.2.$.9.i.p.p.p.7 . +       ",
"    > < * , > > 9 : 1 q.p.p.p.p.p.p.p.p.p.p.p.u._ & . +         ",
"    > : : : : : : : ..p.p.p.p.p.p.p.p.p.p.e.y % . o             ",
"    : : : : : : : # X , e _ +.*.4.*.+.) 7 @ . o                 ",
"      : : : : : :     o o X . . . . . o o +                     ",
"      : : : :                                                   ",
"                                                                "
};
