/* XPM */
static char *stylish__png[] = {
/* columns rows colors chars-per-pixel */
"16 16 118 2",
"   c black",
".  c #3F1E15",
"X  c #542B21",
"o  c #592A23",
"O  c #5B2A24",
"+  c #5C342B",
"@  c #65342C",
"#  c #69322A",
"$  c #6E332C",
"%  c #6F362C",
"&  c #72362D",
"*  c #773830",
"=  c #793C33",
"-  c #734845",
";  c #75564E",
":  c #785A52",
">  c #795B54",
",  c gray42",
"<  c #6C6C6C",
"1  c gray44",
"2  c gray45",
"3  c #767676",
"4  c #7E7674",
"5  c gray47",
"6  c #797979",
"7  c #7C7C7C",
"8  c #813F35",
"9  c #894438",
"0  c #924A3D",
"q  c #90493E",
"w  c #924B3E",
"e  c #954D3F",
"r  c #924F43",
"t  c #995649",
"y  c #A46355",
"u  c #8A7671",
"i  c #AF7467",
"p  c #B07E70",
"a  c #661DB1",
"s  c #70419E",
"d  c #716CBD",
"f  c #7376B9",
"g  c #6600CC",
"h  c #7C25C9",
"j  c #7534C6",
"k  c #7C25D3",
"l  c #7343C6",
"z  c #7053C4",
"x  c #7060C1",
"c  c #8111C3",
"v  c #8413CA",
"b  c #8536D4",
"n  c #8A3CD8",
"m  c #8746D0",
"M  c #8E45D1",
"N  c #9065DB",
"B  c #A162DD",
"V  c #A376D1",
"C  c #AE78E4",
"Z  c #7D88AD",
"A  c #7780B3",
"S  c #888888",
"D  c gray56",
"F  c #968A86",
"G  c #9D8A85",
"H  c #959595",
"J  c #979797",
"K  c #98969B",
"L  c #989898",
"P  c gray60",
"I  c #9A9A9A",
"U  c #AFA39E",
"Y  c #858FA7",
"T  c #8E95A0",
"R  c gray63",
"E  c #A5A5A5",
"W  c #A7A7A7",
"Q  c #A9A9A9",
"!  c #AAAAAA",
"~  c gray67",
"^  c #AEAEAE",
"/  c #AFAFAF",
"(  c gray69",
")  c #B1B1B1",
"_  c gray70",
"`  c gray71",
"'  c #BBB7BE",
"]  c #B9B9B9",
"[  c #BBBBBB",
"{  c #D6B4A8",
"}  c #BBA7EE",
"|  c #C2BFC5",
" . c #C1C1C1",
".. c #CACACA",
"X. c #D2D2D2",
"o. c gray85",
"O. c gainsboro",
"+. c gray87",
"@. c #E7E0DD",
"#. c #D4C7E0",
"$. c #D9D3F8",
"%. c #E1DDE5",
"&. c #E7E7E7",
"*. c gray93",
"=. c #F6EFEC",
"-. c #F7F0ED",
";. c #E9E7FC",
":. c #EBECFD",
">. c #ECF1FE",
",. c #EFF0FE",
"<. c #F1F1F1",
"1. c #F0F5FF",
"2. c #F2F5FE",
"3. c #F9F9F9",
"4. c #FCFDFF",
"5. c #FEFEFE",
"6. c gray100",
"7. c None",
/* pixels */
"P P P P P P P P P ` 7.7.7.7.= 7.",
"P 6.6.6.6.6.6.6.~ R ^ 7.7.* X 7.",
"L 6.6.6.6.6.6.6./ &.W U 9 o 7.7.",
"T 1.6.6.6.6.6.6./ / @.r O 7.7.7.",
"Y >.6.6.6.6.6.6.6.-.t $ . 7.7.7.",
"Z 1.6.6.6.6.6.6.6.y 8 + 7.7.7.7.",
"f 2.5.6.6.6.6.6.i 0 @ 4 7.7.7.7.",
"f >.6.6.6.6.6.p e # G P 7.7.7.7.",
"d ;.6.6.6.6.{ 0 % : *.D 7.7.7.7.",
"x $.6.6.6.=.0 & : +.o.7 7.7.7.7.",
"z } 3.3.3.u - ; ] ] _ , 7.7.7.7.",
"l N %.#.K 3 F ^ ~ ~ ) 2 7.7.7.7.",
"j M V b a | E ) `  .X.S 7.7.7.7.",
"h N C n g ' ..X.O.&.<.H 7.7.7.7.",
"v c M k s < 2 2 3 5 6 P 7.7.7.7.",
"7.7.7.  7.7.7.7.7.7.7.7.7.7.7.7."
};
