/* XPM */
static char *Contours_2[] = {
/* columns rows colors chars-per-pixel */
"32 32 131 2 ",
"   c None",
".  c #020202",
"X  c #010608",
"o  c #0C0C0C",
"O  c #1E0303",
"+  c #131313",
"@  c #1A1B1B",
"#  c #2A171E",
"$  c #111B2B",
"%  c #242424",
"&  c #2A2A2A",
"*  c #333233",
"=  c gray23",
"-  c #5A0000",
";  c #690000",
":  c #502837",
">  c #512A39",
",  c #46383D",
"<  c #4A3E43",
"1  c #5D3947",
"2  c #5A3442",
"3  c #49336E",
"4  c #2D476D",
"5  c #434343",
"6  c #4C4C4C",
"7  c #5D5D5D",
"8  c #674552",
"9  c #694955",
"0  c #6F4F5B",
"q  c #73545F",
"w  c #646464",
"e  c #6C6C6C",
"r  c #7F636E",
"t  c #737373",
"y  c #7B7B7B",
"u  c #C32727",
"i  c #826670",
"p  c #474C87",
"a  c #666397",
"s  c #6B5DB5",
"d  c #4A70B1",
"f  c #6561B4",
"g  c #477FDC",
"h  c #457FE0",
"j  c #9033A1",
"k  c #AD2AAE",
"l  c #AA3FBD",
"z  c #B032BA",
"x  c #B830BD",
"c  c #D41DBD",
"v  c #C12ABC",
"b  c #947D85",
"n  c #8C4BA7",
"m  c #854DB6",
"M  c #9D40BA",
"N  c #AC46BE",
"B  c #A14EBD",
"V  c #DC1BC1",
"C  c #F00EC3",
"Z  c #FB08C4",
"A  c #E617C3",
"S  c #EB12C2",
"D  c #E319C2",
"F  c #917AC1",
"G  c #9E79C4",
"H  c #6F83A5",
"J  c #6485BD",
"K  c #708AB6",
"L  c #738FBD",
"P  c #5D86C9",
"I  c #4B82DC",
"U  c #5684D0",
"Y  c #5185DE",
"T  c #6487C2",
"R  c #6788C0",
"E  c #6A8BC3",
"W  c #7390C2",
"Q  c #4480E5",
"!  c #4883E6",
"~  c #4583EA",
"^  c #4285F5",
"/  c #4186F9",
"(  c #4188FF",
")  c gray52",
"_  c #8C8C8C",
"`  c #968089",
"'  c gray59",
"]  c #9B9B9B",
"[  c #8587B8",
"{  c #8298BC",
"}  c #8A9CBC",
"|  c #8294B1",
" . c #999EBE",
".. c #A69CA0",
"X. c #9FA6A9",
"o. c #91A0BB",
"O. c #A4A4A4",
"+. c #ABACAC",
"@. c #A0ABBD",
"#. c #BAAEB3",
"$. c #ADB4BE",
"%. c gray70",
"&. c #BFB5B9",
"*. c gray74",
"=. c #9A80C4",
"-. c #9A89C6",
";. c #839AC1",
":. c #9D94C8",
">. c #8CA1C3",
",. c #9CA9C0",
"<. c #A4B0C4",
"1. c #AAB4C4",
"2. c #B4BAC4",
"3. c #B3B4D3",
"4. c #C2C2C2",
"5. c #C2C6CC",
"6. c #CBCBCB",
"7. c #C4C9D1",
"8. c #CBCDD2",
"9. c #CED1D4",
"0. c #C7D0DB",
"q. c #D4D3D3",
"w. c #D8D3D5",
"e. c #DBDBDB",
"r. c #D3D5D9",
"t. c #E0DDDF",
"y. c #DEE2E4",
"u. c #E6E6E6",
"i. c #E8E7E8",
"p. c #ECECEC",
"a. c #FFFFFF",
/* pixels */
"          u u u u                 % % * 5 5 * & % +     d s     ",
"        u a.a.a.a.u       % * 7 _ %.e.u.u.u.i.i.u.9.a k z V x f ",
"      u a.a.a.a.a.a.u = %.u.u.u.u.u.u.u.u.u.u.i.y.F N Z Z V l   ",
"    u a.a.a.a.a.a.a.a.u u.u.u.u.u.u.u.u.u.u.i.y.-.S S Z x m     ",
"  u a.a.a.a.a.a.a.a.a.a.u u.u.u.u.u.u.u.u.i.i.-.C Z D B p       ",
"u a.a.a.a.a.a.a.a.a.a.a.a.u u.u.u.u.i.u.u.u.:.S Z Z N [ X       ",
"u a.a.a.u u a.a.u u a.a.a.u i.i.u.u.u.u.u.3.V Z A G 0.' .       ",
"u a.a.u   u a.a.u u.u a.a.u i.i.i.u.i.u.X.j c n  .O.t + + e .   ",
"u u u     u a.a.u 6 e u u u _ y e 7 6 = 4 3 $ . . . X @ ) y .   ",
"      * ) u a.a.u % & & * * = 5 5 6 6 @ . . 6 %.6.t.u.u.y .     ",
"    * 6.u.u a.a.u u.u.u.u.u.u.u.i.u.u.6.9.q.i.i.u.6.) + o       ",
"  o e.u.u.u a.a.u u.u.u.i.u.u.u.i.u.u.i.i.q.] 7 6 w ] e . +     ",
". _ u.u.u.u a.a.u u.u.u.i.u.u.u.y.6.O.w 6 7 ] e.p.p.p.p.5 .     ",
". t u.u.u.u u u u q.%.' y e e e e ) O.q.p.p.p.p.p.p.p.p.4.o o   ",
"  X + 6 e e t t e ) O.4.e.p.p.p.p.p.p.p.p.i.1.>.;.;.2.i.i.t .   ",
"  o * i.i.p.p.p.p.p.p.p.p.p.p.p.p.p.p.p.7.T Q P T ! Q $.p.%.. + ",
"  X w p.p.p.p.p.p.p.p.p.p.p.p.p.p.p.p.r.U T 5.p.p.5.H i.p.i.+ o ",
"  . _ p.p.p.p.p.p.p.p.p.p.p.p.p.p.p.p.{ / $.p.p.p.p.p.p.p.p.= o ",
"  . i p.p.p.p.p.p.p.p.p.p.p.p.p.p.p.p.L / | e.p.p.p.p.p.p.p.= o ",
"  . w p.p.p.p.p.p.p.p.p.p.p.p.p.p.p.p.<.I ( I E 1.p.p.p.p.p.& o ",
"  o & p.p.p.p.p.p.p.p.p.p.p.p.p.p.p.p.p.q.o.L ~ ~ $.p.p.p.q.o o ",
"  + . +.p.p.p.p.p.p.p.p.p.p.u.p.p.p.p.p.p.p.p.} ( @.p.p.p.y .   ",
"    . 5 p.p.p.p.p.p.p.p.i.b ` p.p.2.u.p.p.p.p.L Y 9.p.p.e.% o   ",
"    + + 5 5 O.p.p.p.p.w.0 i p.p.p.E R o.7.@.L ! ,.p.p.p.6 X     ",
"      % ; - & &.p.p.#.2 q i.p.p.u.K I / Q Q E 1.p.p.p.e . +     ",
"      o ; O 6 i i.b : 8 t.p.p.p.i.p.e.2.$.9.i.p.p.i.7 . +       ",
"    > < * , > > 9 : 1 w.p.p.p.p.p.p.p.p.p.p.p.u._ & . +         ",
"    > : : : : : : : ..p.p.p.p.p.p.p.p.p.p.e.y % . o             ",
"    : : : : : : : # X = e _ +.*.4.*.+.) 7 @ . o                 ",
"      : : : : : :     o o X . . . . . o o +                     ",
"      : : : :                                                   ",
"                                                                "
};
