/* XPM */
static char *icon___[] = {
/* columns rows colors chars-per-pixel */
"16 16 119 2",
"   c black",
".  c gray3",
"X  c #0C0C0C",
"o  c gray5",
"O  c #0E0E0E",
"+  c #131313",
"@  c #161616",
"#  c gray10",
"$  c #1C1E35",
"%  c #371F28",
"&  c #252525",
"*  c #252626",
"=  c gray16",
"-  c #2C2C2C",
";  c gray20",
":  c #343434",
">  c #353535",
",  c gray21",
"<  c #3E3E3F",
"1  c #470505",
"2  c #502837",
"3  c #532D3B",
"4  c #50333E",
"5  c #2D254A",
"6  c #503841",
"7  c #663378",
"8  c #444444",
"9  c gray27",
"0  c #515151",
"q  c gray32",
"w  c #535353",
"e  c #555555",
"r  c #565656",
"t  c #585858",
"y  c gray35",
"u  c #665F61",
"i  c #735560",
"p  c #626262",
"a  c gray40",
"s  c #6A6A6A",
"d  c #6C6C6C",
"f  c #727272",
"g  c #9A3EB6",
"h  c #C327BB",
"j  c #BB40B6",
"k  c #F70BC4",
"l  c #E11AC1",
"z  c #AE5CC1",
"x  c #BE78CB",
"c  c #598CDF",
"v  c #6F91CA",
"b  c #7F9AC8",
"n  c #7195D0",
"m  c #7A9ED9",
"M  c #838485",
"N  c gray52",
"B  c #888888",
"V  c gray54",
"C  c #8B8B8B",
"Z  c gray56",
"A  c #9B868E",
"S  c #979797",
"D  c #989898",
"F  c #9A9A9A",
"G  c #9F9F9F",
"H  c #A4979C",
"J  c #9880A7",
"K  c #A0A0A0",
"L  c gray63",
"P  c #AAAAAA",
"I  c #ACACAC",
"U  c #AEAEAE",
"Y  c gray69",
"T  c #B1B1B1",
"R  c #B4B4B4",
"E  c gray71",
"W  c #B6B6B6",
"Q  c #B9B9B9",
"!  c #809FD2",
"~  c #B999C5",
"^  c #8AA6D5",
"/  c #85A5DB",
"(  c #89A8DC",
")  c #98B1DA",
"_  c #A6B7D5",
"`  c #A4B6D6",
"'  c #B0BED5",
"]  c #C388CE",
"[  c #B5C0D5",
"{  c #B6C3D7",
"}  c #B5C3DA",
"|  c #BDC8DB",
" . c #C6C6C6",
".. c #CCC4C7",
"X. c #CECECE",
"o. c #C5CDDB",
"O. c #C4CDDC",
"+. c #C9CFD9",
"@. c #CFD3DB",
"#. c #CDD4DF",
"$. c #D0D0D0",
"%. c #D5D0D2",
"&. c #D7D1D3",
"*. c gray84",
"=. c #DADADA",
"-. c #DADDE2",
";. c #DFE0E3",
":. c gray88",
">. c #E1E1E1",
",. c #E2E3E4",
"<. c #E4E4E4",
"1. c #E5E5E6",
"2. c #E6E6E6",
"3. c #E7E6E6",
"4. c #E7E7E7",
"5. c #E9E9E9",
"6. c #EBEAEB",
"7. c #ECECEC",
"8. c None",
/* pixels */
"8.8.8.8.8.8.8.y d V F V M 7 g 8.",
"8.8.8.8.8.V *.2.2.2.2.2.x l h 8.",
"8.8.8.8.B 2.2.2.2.2.2.] k z 5 8.",
"8.8.8.  T 2.2.2.2.2.J j ~ f & 8.",
"8.8.S e ; w s p t < $ & 8 a w 8.",
"8.Q 2.2.2.2.2.2.2.;.=.E F e X 8.",
"- 2.2.2.:. .I P P G G X.7.7.8 8.",
"8.w I T E $.6.7.7.7.| b v _ E . ",
"8.N 7.7.7.7.7.7.7.#.n :.:.O.6.# ",
"X Z 7.7.7.7.7.7.7.{ c ) -.7.:.@ ",
"8.e 6.7.7.7.7.7.7.6.+.^ m 7.L X ",
"8.@ V =.7.2.A &.{ ' @.! _ 2.8 8.",
"8., 1 u &.i ..7.O.( / } 6.w 8.8.",
"8.4 6 2 3 H 7.7.7.7.2.Z : 8.8.8.",
"8.2 2 2 % X , y w 8 = 8.8.8.8.8.",
"8.8.2 8.8.8.8.8.8.8.8.8.8.8.8.8."
};
