/* XPM */
static char *__x__c_png[] = {
/* columns rows colors chars-per-pixel */
"16 16 120 2",
"   c #3F1E15",
".  c #542B21",
"X  c #592A23",
"o  c #5B2A24",
"O  c #5C342B",
"+  c #65342C",
"@  c #69322A",
"#  c #6E332C",
"$  c #6F362C",
"%  c #72362D",
"&  c #773830",
"*  c #793C33",
"=  c #734845",
"-  c #75564E",
";  c #785A52",
":  c #795B54",
">  c #6C6C6C",
",  c gray44",
"<  c gray45",
"1  c #767676",
"2  c #7E7674",
"3  c gray47",
"4  c #813F35",
"5  c #894438",
"6  c #924A3D",
"7  c #90493E",
"8  c #924B3E",
"9  c #954D3F",
"0  c #924F43",
"q  c #995649",
"w  c #A46355",
"e  c #8A7671",
"r  c #AF7467",
"t  c #D39F00",
"y  c #DFB600",
"u  c #DAB416",
"i  c #DEB813",
"p  c #E3BA00",
"a  c #E4B800",
"s  c #E4BB00",
"d  c #E8BC00",
"f  c #E9BF00",
"g  c #E5BF14",
"h  c #C19C27",
"j  c #E6C014",
"k  c #E8C317",
"l  c #EBC51A",
"z  c #FEFE00",
"x  c yellow",
"c  c #BF8D7F",
"v  c #661DB1",
"b  c #70419E",
"n  c #716CBD",
"m  c #7376B9",
"M  c #6600CC",
"N  c #7C25C9",
"B  c #7534C6",
"V  c #7C25D3",
"C  c #7343C6",
"Z  c #7053C4",
"A  c #7060C1",
"S  c #8111C3",
"D  c #8413CA",
"F  c #8536D4",
"G  c #8A3CD8",
"H  c #8746D0",
"J  c #8E45D1",
"K  c #9065DB",
"L  c #A162DD",
"P  c #A376D1",
"I  c #AE78E4",
"U  c #7D88AD",
"Y  c #7780B3",
"T  c #968A86",
"R  c #9D8A85",
"E  c #98969B",
"W  c gray60",
"Q  c #9A9A9A",
"!  c #AFA39E",
"~  c #858FA7",
"^  c #8E95A0",
"/  c gray63",
"(  c #A5A5A5",
")  c #A7A7A7",
"_  c #AAAAAA",
"`  c #AEAEAE",
"'  c #AFAFAF",
"]  c #B1B1B1",
"[  c gray71",
"{  c #BBB7BE",
"}  c #B9B9B9",
"|  c #D6B4A8",
" . c #FFFF80",
".. c #BBA7EE",
"X. c #C2BFC5",
"o. c #CACACA",
"O. c #D2D2D2",
"+. c gainsboro",
"@. c gray87",
"#. c #FFFFC0",
"$. c #E7E0DD",
"%. c #D4C7E0",
"&. c #D9D3F8",
"*. c #E1DDE5",
"=. c #E7E7E7",
"-. c gray93",
";. c #F6EFEC",
":. c #F7F0ED",
">. c #E9E7FC",
",. c #EBECFD",
"<. c #ECF1FE",
"1. c #EFF0FE",
"2. c ivory",
"3. c #F0F5FF",
"4. c #F2F5FE",
"5. c #F9F9F9",
"6. c #FCFDFF",
"7. c #FEFEFE",
"8. c gray100",
"9. c None",
/* pixels */
"W W W W W W W W W [ 9.9.9.9.* 9.",
"W 8.8.8.8.8.8.8._ / ' 9.9.& . 9.",
"W 8.8.8.8.8.8.8.' =.) ! 5 X 9.9.",
"^ 3.8.8.8.8.8.8.' ' $.0 o 9.9.9.",
"~ <.8.8.8.8.8.8.8.;.q #   9.9.9.",
"U 3.8.8.8.8.8.8.8.w 5 O 9.9.9.9.",
"m 4.7.8.8.8.8.8.r 7 + 2 9.9.9.9.",
"m <.7.8.8.8.8.c 9 @ R i 9.9.9.9.",
"n >.8.8.8.8.| 6 $ ; -.z 9.9.9.9.",
"A &.8.8.8.;.6 % ; @.j  .p 9.9.9.",
"Z ..5.5.5.e = - } g z #.z s 9.9.",
"C K *.%.E 1 T u z  .#.2.#. .z d ",
"B J P F v X.( ] [ j z #.z d 9.9.",
"N K I G M { o.O.@.=.l  .s 9.9.9.",
"D S J V b > , < 1 3 h z t 9.9.9.",
"9.9.9.9.9.9.9.9.9.9.9.s 9.9.9.9."
};
